{
  "accessors": [
    {
      "bufferView": 2,
      "componentType": 5126,
      "count": 923,
      "max": [
        0.1386370062828064,
        0.9942349791526794,
        0.58365398645401
      ],
      "min": [
        -0.1386370062828064,
        -0.9979550242424011,
        -0.58365398645401
      ],
      "type": "VEC3"
    },
    {
      "bufferView": 2,
      "byteOffset": 11076,
      "componentType": 5126,
      "count": 923,
      "max": [
        1.0,
        1.0,
        1.0
      ],
      "min": [
        -1.0,
        -1.0,
        -1.0
      ],
      "type": "VEC3"
    },
    {
      "bufferView": 3,
      "componentType": 5126,
      "count": 923,
      "max": [
        1.0,
        1.0,
        0.7071072459220886,
        1.0
      ],
      "min": [
        -1.0,
        -1.0,
        -0.7071077823638916,
        1.0
      ],
      "type": "VEC4"
    },
    {
      "bufferView": 1,
      "componentType": 5126,
      "count": 923,
      "max": [
        0.9593319892883301,
        0.9528149962425232
      ],
      "min": [
        0.0,
        0.0
      ],
      "type": "VEC2"
    },
    {
      "bufferView": 0,
      "componentType": 5125,
      "count": 4746,
      "type": "SCALAR"
    },
    {
      "bufferView": 2,
      "byteOffset": 22152,
      "componentType": 5126,
      "count": 115,
      "max": [
        0.022035900503396988,
        0.9963740110397339,
        0.2470410019159317
      ],
      "min": [
        -0.022035999223589897,
        0.8970479965209961,
        0.1311109960079193
      ],
      "type": "VEC3"
    },
    {
      "bufferView": 2,
      "byteOffset": 23532,
      "componentType": 5126,
      "count": 115,
      "max": [
        1.0,
        1.0,
        1.0
      ],
      "min": [
        -1.0,
        -5.383079951570835e-06,
        -1.0
      ],
      "type": "VEC3"
    },
    {
      "bufferView": 3,
      "byteOffset": 14768,
      "componentType": 5126,
      "count": 115,
      "max": [
        1.0,
        2.8025848223478533e-05,
        1.0,
        1.0
      ],
      "min": [
        -1.0,
        -1.0,
        -1.0,
        1.0
      ],
      "type": "VEC4"
    },
    {
      "bufferView": 1,
      "byteOffset": 7384,
      "componentType": 5126,
      "count": 115,
      "max": [
        0.921159029006958,
        0.6083269715309143
      ],
      "min": [
        0.6868320107460022,
        0.23493899405002594
      ],
      "type": "VEC2"
    },
    {
      "bufferView": 0,
      "byteOffset": 18984,
      "componentType": 5125,
      "count": 264,
      "type": "SCALAR"
    },
    {
      "bufferView": 2,
      "byteOffset": 24912,
      "componentType": 5126,
      "count": 66,
      "max": [
        0.03369870036840439,
        0.9948520064353943,
        -0.18808799982070923
      ],
      "min": [
        -0.03369870036840439,
        0.9804660081863403,
        -0.36767199635505676
      ],
      "type": "VEC3"
    },
    {
      "bufferView": 2,
      "byteOffset": 25704,
      "componentType": 5126,
      "count": 66,
      "max": [
        1.0,
        1.0,
        1.0
      ],
      "min": [
        -1.0,
        0.0,
        -1.0
      ],
      "type": "VEC3"
    },
    {
      "bufferView": 3,
      "byteOffset": 16608,
      "componentType": 5126,
      "count": 66,
      "max": [
        0.0003756589430849999,
        1.0,
        0.00020814905292354524,
        1.0
      ],
      "min": [
        -1.0,
        -4.055129565472271e-10,
        -0.0004583257541526109,
        1.0
      ],
      "type": "VEC4"
    },
    {
      "bufferView": 1,
      "byteOffset": 8304,
      "componentType": 5126,
      "count": 66,
      "max": [
        0.9663730263710022,
        0.4524199962615967
      ],
      "min": [
        0.7884349822998047,
        0.23346799612045288
      ],
      "type": "VEC2"
    },
    {
      "bufferView": 0,
      "byteOffset": 20040,
      "componentType": 5125,
      "count": 168,
      "type": "SCALAR"
    },
    {
      "bufferView": 2,
      "byteOffset": 26496,
      "componentType": 5126,
      "count": 51,
      "max": [
        0.1386370062828064,
        0.8747749924659729,
        0.40316900610923767
      ],
      "min": [
        0.08288100361824036,
        0.2157749980688095,
        -0.39811500906944275
      ],
      "type": "VEC3"
    },
    {
      "bufferView": 2,
      "byteOffset": 27108,
      "componentType": 5126,
      "count": 51,
      "max": [
        1.0,
        1.0,
        1.0
      ],
      "min": [
        -4.2064189642587735e-07,
        -1.0,
        -1.0
      ],
      "type": "VEC3"
    },
    {
      "bufferView": 3,
      "byteOffset": 17664,
      "componentType": 5126,
      "count": 51,
      "max": [
        1.0,
        5.565622268477455e-05,
        2.974395840737998e-07,
        1.0
      ],
      "min": [
        -1.291803073399933e-07,
        -2.974390440613206e-07,
        -1.0,
        1.0
      ],
      "type": "VEC4"
    },
    {
      "bufferView": 1,
      "byteOffset": 8832,
      "componentType": 5126,
      "count": 51,
      "max": [
        0.9867590069770813,
        1.0
      ],
      "min": [
        0.6868320107460022,
        0.0
      ],
      "type": "VEC2"
    },
    {
      "bufferView": 0,
      "byteOffset": 20712,
      "componentType": 5125,
      "count": 144,
      "type": "SCALAR"
    },
    {
      "bufferView": 2,
      "byteOffset": 27720,
      "componentType": 5126,
      "count": 113,
      "max": [
        0.029238399118185043,
        -0.9405480027198792,
        0.19604699313640594
      ],
      "min": [
        -0.029238399118185043,
        -1.0,
        -0.19604699313640594
      ],
      "type": "VEC3"
    },
    {
      "bufferView": 2,
      "byteOffset": 29076,
      "componentType": 5126,
      "count": 113,
      "max": [
        0.999991238117218,
        7.004998536785934e-08,
        0.9988442659378052
      ],
      "min": [
        -0.999991238117218,
        -1.0,
        -0.9988442659378052
      ],
      "type": "VEC3"
    },
    {
      "bufferView": 3,
      "byteOffset": 18480,
      "componentType": 5126,
      "count": 113,
      "max": [
        0.9976302981376648,
        1.0,
        0.16844695806503296,
        1.0
      ],
      "min": [
        -1.0,
        -1.0,
        -0.3267749845981598,
        1.0
      ],
      "type": "VEC4"
    },
    {
      "bufferView": 1,
      "byteOffset": 9240,
      "componentType": 5126,
      "count": 113,
      "max": [
        0.9518049955368042,
        0.6321280002593994
      ],
      "min": [
        0.8737810254096985,
        0.234933003783226
      ],
      "type": "VEC2"
    },
    {
      "bufferView": 0,
      "byteOffset": 21288,
      "componentType": 5125,
      "count": 390,
      "type": "SCALAR"
    },
    {
      "bufferView": 2,
      "byteOffset": 30432,
      "componentType": 5126,
      "count": 122,
      "max": [
        0.05178219825029373,
        1.0,
        0.05178229883313179
      ],
      "min": [
        -0.05178229883313179,
        0.8680530190467834,
        -0.05178229883313179
      ],
      "type": "VEC3"
    },
    {
      "bufferView": 2,
      "byteOffset": 31896,
      "componentType": 5126,
      "count": 122,
      "max": [
        1.0,
        1.0,
        1.0
      ],
      "min": [
        -1.0,
        0.0,
        -1.0
      ],
      "type": "VEC3"
    },
    {
      "bufferView": 3,
      "byteOffset": 20288,
      "componentType": 5126,
      "count": 122,
      "max": [
        0.9915436506271362,
        1.0,
        1.0,
        1.0
      ],
      "min": [
        -1.0,
        -1.0,
        -0.991549015045166,
        1.0
      ],
      "type": "VEC4"
    },
    {
      "bufferView": 1,
      "byteOffset": 10144,
      "componentType": 5126,
      "count": 122,
      "max": [
        0.9205949902534485,
        0.5885639786720276
      ],
      "min": [
        0.0,
        0.33828800916671753
      ],
      "type": "VEC2"
    },
    {
      "bufferView": 0,
      "byteOffset": 22848,
      "componentType": 5125,
      "count": 336,
      "type": "SCALAR"
    }
  ],
  "asset": {
    "extras": {
      "author": "Timothy Ahene (https://sketchfab.com/timothyahene)",
      "license": "CC-BY-4.0 (http://creativecommons.org/licenses/by/4.0/)",
      "source": "https://sketchfab.com/3d-models/ipod-classic-13dbe30b0e45408c8bfaddfe6a4e8786",
      "title": "iPod Classic"
    },
    "generator": "Sketchfab-16.33.0",
    "version": "2.0"
  },
  "bufferViews": [
    {
      "buffer": 0,
      "byteLength": 24192,
      "name": "floatBufferViews",
      "target": 34963
    },
    {
      "buffer": 0,
      "byteLength": 11120,
      "byteOffset": 24192,
      "byteStride": 8,
      "name": "floatBufferViews",
      "target": 34962
    },
    {
      "buffer": 0,
      "byteLength": 33360,
      "byteOffset": 35312,
      "byteStride": 12,
      "name": "floatBufferViews",
      "target": 34962
    },
    {
      "buffer": 0,
      "byteLength": 22240,
      "byteOffset": 68672,
      "byteStride": 16,
      "name": "floatBufferViews",
      "target": 34962
    }
  ],
  "buffers": [
    {
      "byteLength": 90912,
      "uri": "scene.bin"
    }
  ],
  "extensionsUsed": [
    "KHR_materials_transmission"
  ],
  "images": [
    {
      "uri": "textures/iPod_Material_baseColor.png"
    },
    {
      "uri": "textures/iPod_Material_metallicRoughness.png"
    },
    {
      "uri": "textures/iPod_Material_emissive.jpeg"
    },
    {
      "uri": "textures/iPod_Material_normal.png"
    },
    {
      "uri": "textures/iPod_Material_transmission.png"
    }
  ],
  "materials": [
    {
      "alphaMode": "BLEND",
      "emissiveFactor": [
        1.0,
        1.0,
        1.0
      ],
      "emissiveTexture": {
        "index": 2
      },
      "extensions": {
        "KHR_materials_transmission": {
          "transmissionFactor": 1.0,
          "transmissionTexture": {
            "index": 4
          }
        }
      },
      "name": "iPod_Material",
      "normalTexture": {
        "index": 3
      },
      "occlusionTexture": {
        "index": 1
      },
      "pbrMetallicRoughness": {
        "baseColorTexture": {
          "index": 0
        },
        "metallicRoughnessTexture": {
          "index": 1
        }
      }
    }
  ],
  "meshes": [
    {
      "name": "defaultMaterial",
      "primitives": [
        {
          "attributes": {
            "NORMAL": 1,
            "POSITION": 0,
            "TANGENT": 2,
            "TEXCOORD_0": 3
          },
          "indices": 4,
          "material": 0,
          "mode": 4
        }
      ]
    },
    {
      "name": "defaultMaterial",
      "primitives": [
        {
          "attributes": {
            "NORMAL": 6,
            "POSITION": 5,
            "TANGENT": 7,
            "TEXCOORD_0": 8
          },
          "indices": 9,
          "material": 0,
          "mode": 4
        }
      ]
    },
    {
      "name": "defaultMaterial",
      "primitives": [
        {
          "attributes": {
            "NORMAL": 11,
            "POSITION": 10,
            "TANGENT": 12,
            "TEXCOORD_0": 13
          },
          "indices": 14,
          "material": 0,
          "mode": 4
        }
      ]
    },
    {
      "name": "defaultMaterial",
      "primitives": [
        {
          "attributes": {
            "NORMAL": 16,
            "POSITION": 15,
            "TANGENT": 17,
            "TEXCOORD_0": 18
          },
          "indices": 19,
          "material": 0,
          "mode": 4
        }
      ]
    },
    {
      "name": "defaultMaterial",
      "primitives": [
        {
          "attributes": {
            "NORMAL": 21,
            "POSITION": 20,
            "TANGENT": 22,
            "TEXCOORD_0": 23
          },
          "indices": 24,
          "material": 0,
          "mode": 4
        }
      ]
    },
    {
      "name": "defaultMaterial",
      "primitives": [
        {
          "attributes": {
            "NORMAL": 26,
            "POSITION": 25,
            "TANGENT": 27,
            "TEXCOORD_0": 28
          },
          "indices": 29,
          "material": 0,
          "mode": 4
        }
      ]
    }
  ],
  "nodes": [
    {
      "children": [
        1
      ],
      "matrix": [
        0.10000000149011612,
        0.0,
        0.0,
        0.0,
        0.0,
        2.2204460823375376e-17,
        -0.10000000149011612,
        0.0,
        0.0,
        0.10000000149011612,
        2.2204460823375376e-17,
        0.0,
        0.0,
        0.0,
        0.0,
        1.0
      ],
      "name": "Sketchfab_model"
    },
    {
      "children": [
        2,
        4,
        6,
        8,
        10,
        12
      ],
      "matrix": [
        1.0,
        0.0,
        0.0,
        0.0,
        0.0,
        -4.371139006309477e-08,
        0.999999999999999,
        0.0,
        0.0,
        -0.999999999999999,
        -4.371139006309477e-08,
        0.0,
        0.0,
        0.0,
        0.0,
        1.0
      ],
      "name": "Collada visual scene group"
    },
    {
      "children": [
        3
      ],
      "name": "body_low"
    },
    {
      "mesh": 0,
      "name": "defaultMaterial"
    },
    {
      "children": [
        5
      ],
      "name": "Port_low"
    },
    {
      "mesh": 1,
      "name": "defaultMaterial"
    },
    {
      "children": [
        7
      ],
      "name": "Switch_low"
    },
    {
      "mesh": 2,
      "name": "defaultMaterial"
    },
    {
      "children": [
        9
      ],
      "name": "Screen_low"
    },
    {
      "mesh": 3,
      "name": "defaultMaterial"
    },
    {
      "children": [
        11
      ],
      "name": "Charging_port_low"
    },
    {
      "mesh": 4,
      "name": "defaultMaterial"
    },
    {
      "children": [
        13
      ],
      "name": "Headphone_jack_low"
    },
    {
      "mesh": 5,
      "name": "defaultMaterial"
    }
  ],
  "samplers": [
    {
      "magFilter": 9729,
      "minFilter": 9987,
      "wrapS": 10497,
      "wrapT": 10497
    }
  ],
  "scene": 0,
  "scenes": [
    {
      "name": "Sketchfab_Scene",
      "nodes": [
        0
      ]
    }
  ],
  "textures": [
    {
      "sampler": 0,
      "source": 0
    },
    {
      "sampler": 0,
      "source": 1
    },
    {
      "sampler": 0,
      "source": 2
    },
    {
      "sampler": 0,
      "source": 3
    },
    {
      "sampler": 0,
      "source": 4
    }
  ]
}
